<?xml version="1.0" standalone="no"?>
<!DOCTYPE svg PUBLIC "-//W3C//DTD SVG 1.1//EN" "http://www.w3.org/Graphics/SVG/1.1/DTD/svg11.dtd" >
<svg xmlns="http://www.w3.org/2000/svg">
<metadata></metadata>
<defs>
<font id="klavika_chbold_cond_it" horiz-adv-x="845" >
<font-face units-per-em="2048" ascent="1536" descent="-512" />
<missing-glyph horiz-adv-x="364" />
<glyph horiz-adv-x="0" />
<glyph unicode="&#xd;" horiz-adv-x="364" />
<glyph unicode=" "  horiz-adv-x="364" />
<glyph unicode="&#x09;" horiz-adv-x="364" />
<glyph unicode="&#xa0;" horiz-adv-x="364" />
<glyph unicode="!" horiz-adv-x="464" d="M0 0l55 315h271l-56 -315h-270zM129 453l10 346l101 565h272l-100 -565l-111 -346h-172z" />
<glyph unicode="&#x22;" horiz-adv-x="784" d="M137 840l92 524h242l-92 -524h-242zM516 840l92 524h242l-92 -524h-242z" />
<glyph unicode="#" horiz-adv-x="1124" d="M33 369l43 192h164l59 266h-166l41 193h166l78 344h217l-78 -344h215l78 344h217l-78 -344h160l-41 -193h-160l-59 -266h160l-39 -192h-164l-80 -369h-217l80 369h-215l-80 -369h-217l80 369h-164zM457 561h215l59 266h-215z" />
<glyph unicode="$" horiz-adv-x="798" d="M20 57l54 232q49 -20 103 -31.5t106 -11.5q106 0 140 50t34 142q0 20 -7.5 37t-23.5 33t-44 36.5t-69 49.5q-104 74 -145 136.5t-41 139.5q0 221 73.5 335t233.5 143l41 227h215l-41 -223q55 -6 102.5 -20.5t88.5 -33.5l-56 -227q-49 18 -114.5 32.5t-118.5 14.5 q-74 0 -105.5 -33.5t-31.5 -103.5q0 -25 4 -41t17.5 -30.5t37 -32t62.5 -48.5q68 -51 107.5 -86.5t62 -67.5t29.5 -66t7 -83q0 -74 -13 -154.5t-50 -151t-100.5 -125t-161.5 -77.5l-33 -188h-215l31 180q-98 8 -179 47z" />
<glyph unicode="%" horiz-adv-x="1576" d="M127 821q0 23 6 58l43 241q12 68 34.5 119t60.5 84t95.5 49.5t139.5 16.5q119 0 178 -58.5t59 -156.5q0 -14 -1 -32t-5 -32l-41 -231q-10 -61 -32.5 -110.5t-60.5 -84.5t-94 -54.5t-136 -19.5q-127 0 -186.5 59.5t-59.5 151.5zM348 854q-8 -57 53 -57q66 0 74 57l51 289 q10 59 -53 59q-66 0 -74 -57zM387 72l680 1317l176 -99l-680 -1315zM887 186q0 23 6 58l43 241q12 68 34.5 119t60.5 84t95.5 49.5t139.5 16.5q119 0 178 -58.5t59 -156.5q0 -14 -1 -32t-5 -32l-41 -231q-10 -61 -32.5 -110.5t-60.5 -84.5t-94.5 -54.5t-135.5 -19.5 q-127 0 -186.5 59.5t-59.5 151.5zM1108 219q-8 -57 53 -57q66 0 74 57l51 289q10 59 -53 59q-66 0 -74 -57z" />
<glyph unicode="&#x26;" horiz-adv-x="1134" d="M20 229q0 35 7 72l12 70q10 57 27.5 98t42 71.5t56.5 56.5t68 54q2 2 12.5 8.5t20.5 14.5q12 8 27 20l-47 76q-33 53 -50.5 98t-17.5 101q0 23 1 39t5 36l9 48q25 141 122 216.5t283 75.5q150 0 237 -66.5t87 -182.5q0 -12 -1 -25.5t-3 -28.5l-9 -49q-8 -45 -19 -82 t-31.5 -69.5t-50.5 -63.5t-73 -63l-112 -84q27 -41 54.5 -83t57.5 -89l146 188l163 -133l-186 -240l209 -313h-299q-43 57 -78 111q-92 -72 -175 -101.5t-191 -29.5q-141 0 -222.5 62t-81.5 187zM303 281q0 -35 20.5 -55.5t75.5 -20.5q47 0 87 19.5t79 64.5 q-45 61 -82 116.5t-71 108.5q-49 -39 -67.5 -64.5t-25.5 -66.5l-14 -80q-2 -10 -2 -14v-8zM434 1001q0 -29 13.5 -52t31.5 -54l31 -49l68 49q45 33 60 58.5t24 68.5l8 47q10 53 -17.5 77.5t-79.5 24.5q-53 0 -84.5 -18t-42.5 -72l-8 -47q-2 -10 -3 -19t-1 -14z" />
<glyph unicode="'" horiz-adv-x="405" d="M137 840l92 524h242l-92 -524h-242z" />
<glyph unicode="(" horiz-adv-x="655" d="M111 403q0 184 33.5 350.5t99 317t161 291.5t216.5 276l186 -141q-96 -127 -174 -250t-133.5 -252t-86 -267t-30.5 -296q0 -139 28.5 -280.5t94.5 -323.5l-223 -107q-43 88 -76 170t-54.5 165t-31.5 168t-10 179z" />
<glyph unicode=")" horiz-adv-x="657" d="M-100 -137q96 127 174 250t133 252t86 267t31 296q0 139 -29 280.5t-94 323.5l223 106q43 -88 75.5 -170t54 -164.5t32 -167.5t10.5 -180q0 -184 -34 -350t-99.5 -316.5t-160.5 -291.5t-216 -277z" />
<glyph unicode="*" horiz-adv-x="774" d="M172 1034l25 144h182l-70 172l140 55l63 -166l121 166l104 -86l-108 -141h178l-25 -144h-186l70 -174l-138 -53l-63 162l-121 -162l-106 80l112 147h-178z" />
<glyph unicode="+" horiz-adv-x="925" d="M123 586v233h250v309h262v-309h250v-233h-250v-310h-262v310h-250z" />
<glyph unicode="," horiz-adv-x="430" d="M-45 -203l121 203h-84l55 315h270l-57 -317l-197 -274z" />
<glyph unicode="-" horiz-adv-x="612" d="M92 549l41 235h442l-40 -235h-443z" />
<glyph unicode="." horiz-adv-x="438" d="M0 0l55 315h271l-56 -315h-270z" />
<glyph unicode="/" horiz-adv-x="827" d="M-74 -240l713 1624h283l-713 -1624h-283z" />
<glyph unicode="0" horiz-adv-x="952" d="M41 262q0 23 1 40t5 36l121 684q63 367 455 367q176 0 260 -81t84 -208q0 -41 -6 -78l-121 -684q-29 -168 -137.5 -265.5t-319.5 -97.5q-172 0 -257 80t-85 207zM317 326q-10 -53 17 -83t86 -30q61 0 96 29.5t45 83.5l127 718q18 106 -102 107q-123 0 -142 -104z" />
<glyph unicode="1" horiz-adv-x="673" d="M92 1063l402 301h225l-240 -1364h-274l176 997l-178 -118z" />
<glyph unicode="2" horiz-adv-x="823" d="M-41 0l37 215q68 76 119 134.5t94 107.5t83 94t85 96q51 57 81.5 96t48 70t27 60.5t15.5 66.5l16 94q2 10 3 20.5t1 18.5q0 45 -27.5 61.5t-86.5 16.5q-72 0 -130.5 -12.5t-117.5 -32.5l-8 223q72 29 164 44.5t184 15.5q141 0 222 -59.5t81 -194.5q0 -25 -2 -49.5 t-6 -41.5l-13 -69q-12 -66 -23 -116t-34.5 -99t-62 -101t-101.5 -120q-68 -72 -136.5 -141.5t-158.5 -159.5h402l-41 -238h-715z" />
<glyph unicode="3" horiz-adv-x="802" d="M-20 31l55 221q111 -43 229 -43q84 0 118 28.5t46 98.5l18 106q2 10 3.5 19.5t1.5 17.5q0 51 -29 70.5t-80 19.5h-205l41 240h187q74 0 105.5 27.5t41.5 81.5l20 116q12 72 -23.5 96.5t-105.5 24.5q-98 0 -196 -27v220q66 23 145.5 32t159.5 9q307 0 307 -246 q0 -45 -8 -86l-23 -127q-18 -96 -58 -150.5t-136 -81.5q72 -20 103.5 -62t31.5 -118q0 -18 -2 -37.5t-6 -38.5l-21 -116q-14 -82 -41.5 -146.5t-77 -109.5t-124 -70t-183.5 -25q-68 0 -149.5 13.5t-144.5 42.5z" />
<glyph unicode="4" horiz-adv-x="925" d="M4 303l39 221l545 840h309l-145 -827h149l-39 -234h-151l-54 -303h-260l54 303h-447zM295 537h197l81 460z" />
<glyph unicode="5" horiz-adv-x="815" d="M6 8l45 232q59 -16 108.5 -21.5t102.5 -5.5q104 0 142 37t51 108l14 84q2 10 3 19.5t1 19.5q0 49 -28.5 73t-100.5 24h-238l140 786h604l-43 -238h-328l-55 -311h27q156 0 230.5 -61.5t74.5 -200.5q0 -27 -3 -49.5t-8 -50.5l-18 -105q-35 -193 -139.5 -283t-304.5 -90 q-31 0 -68 2.5t-74 6.5t-72.5 10t-62.5 14z" />
<glyph unicode="6" horiz-adv-x="890" d="M43 270q0 25 2 44.5t6 45.5l115 650q35 197 142.5 288t320.5 91q154 0 274 -46l-47 -219q-43 16 -96 26.5t-117 10.5q-102 0 -147 -39t-62 -135l-35 -196q41 18 89.5 27t93.5 9q125 0 194.5 -63.5t69.5 -181.5q0 -20 -2 -42t-6 -40l-31 -174q-31 -174 -129 -262.5 t-305 -88.5q-158 0 -244 77t-86 218zM311 274q0 -41 25.5 -57t64.5 -16q113 0 131 100l35 199q18 100 -84 100q-35 0 -64.5 -7t-58.5 -22l-47 -268q-2 -10 -2 -17v-12z" />
<glyph unicode="7" horiz-adv-x="798" d="M-6 0l584 1128h-412l41 236h704l-34 -199l-594 -1165h-289z" />
<glyph unicode="8" horiz-adv-x="925" d="M33 242q0 35 6 71l16 95q18 104 67.5 174.5t153.5 111.5q-53 41 -77.5 92.5t-24.5 112.5q0 29 6 64l17 96q14 82 41.5 143.5t75.5 102.5t122 62.5t182 21.5q313 0 314 -254q0 -37 -6 -76l-19 -107q-14 -78 -59 -148.5t-133 -109.5q70 -41 98.5 -93t28.5 -124 q0 -35 -6 -71l-17 -95q-31 -174 -136 -255t-314 -81q-150 0 -243 68t-93 199zM305 270q0 -82 103 -82q121 0 141 115l16 92q2 10 3 22.5t1 24.5q0 41 -21.5 70t-74.5 61q-78 -41 -107.5 -77.5t-39.5 -100.5l-17 -92q-2 -10 -3 -17t-1 -16zM446 913q0 -35 16.5 -60.5 t53.5 -53.5q61 35 86 66.5t35 86.5l20 117q2 10 3.5 18.5t1.5 14.5q0 74 -80 74q-53 0 -76 -21.5t-33 -75.5l-22 -127q-4 -20 -5 -39z" />
<glyph unicode="9" horiz-adv-x="892" d="M45 20l47 220q43 -16 96.5 -26.5t116.5 -10.5q102 0 147.5 39t61.5 135l35 196q-41 -18 -89 -27t-93 -9q-125 0 -195 63.5t-70 181.5q0 20 2 42t7 40l30 174q14 86 45 151.5t82 109.5t127 67t180 23q160 0 245 -77t85 -218q0 -25 -2 -44.5t-6 -45.5l-115 -650 q-35 -197 -142.5 -288t-320.5 -91q-154 0 -274 45zM381 864q-18 -100 84 -100q35 0 64.5 7t58.5 22l47 268q2 10 2 17v12q0 41 -25.5 57t-64.5 16q-113 0 -131 -100z" />
<glyph unicode=":" horiz-adv-x="456" d="M0 0l55 315h271l-56 -315h-270zM102 578l56 315h270l-55 -315h-271z" />
<glyph unicode=";" horiz-adv-x="456" d="M-37 -203l121 203h-84l55 315h271l-58 -317l-196 -274zM102 578l56 315h270l-55 -315h-271z" />
<glyph unicode="&#x3c;" horiz-adv-x="892" d="M100 573v258l676 318l86 -227l-487 -220l487 -219l-86 -227z" />
<glyph unicode="=" horiz-adv-x="978" d="M139 389v236h762v-236h-762zM139 782v234h762v-234h-762z" />
<glyph unicode="&#x3e;" horiz-adv-x="892" d="M113 483l487 219l-487 220l86 227l675 -318v-258l-675 -317z" />
<glyph unicode="?" horiz-adv-x="778" d="M102 0l56 315h270l-55 -315h-271zM201 1327q74 31 158.5 46.5t170.5 15.5q143 0 218 -54.5t75 -183.5q0 -29 -2 -54.5t-6 -45.5l-14 -86q-8 -49 -20.5 -88t-34 -76t-55.5 -73t-83 -77q-72 -59 -133 -110.5t-133 -110.5l-137 176q55 51 105 99.5t98 91.5q47 45 80.5 85 t43.5 97l11 57q2 10 3 18.5t1 16.5q0 47 -25.5 62.5t-72.5 15.5q-59 0 -120 -12.5t-114 -32.5z" />
<glyph unicode="@" horiz-adv-x="1339" d="M76 532q0 170 45 326t140 273.5t243.5 188.5t353.5 71q121 0 214 -34t155.5 -94.5t95.5 -144.5t33 -184q0 -104 -32 -201.5t-92.5 -173.5t-149.5 -122t-203 -46q-63 0 -105.5 22.5t-56.5 67.5q-37 -35 -80 -55t-90 -20q-59 0 -88 31.5t-29 80.5q0 37 14 74l88 248 q16 47 36 79.5t47.5 52t66.5 28t94 8.5q74 0 136.5 -31t111.5 -72l-129 -362h12q61 2 107.5 31.5t78 78.5t47 112.5t15.5 133.5q0 154 -79 233.5t-236 79.5q-137 0 -240.5 -53t-173.5 -145t-105.5 -215t-35.5 -262q0 -182 90 -282.5t278 -100.5q80 0 154 13t151 36l19 -172 q-66 -27 -158 -41.5t-180 -14.5q-145 0 -251.5 41t-176.5 115t-102.5 176.5t-32.5 224.5zM635 594q-12 -31 22 -31q29 0 64 21l90 256l-22.5 9t-26.5 5q-18 0 -28.5 -7t-18.5 -30z" />
<glyph unicode="A" horiz-adv-x="937" d="M-86 0l543 1364h315l72 -1364h-281l2 276h-264l-92 -276h-295zM387 524h180l2 545z" />
<glyph unicode="B" horiz-adv-x="923" d="M0 0l240 1364h436q262 0 262 -205q0 -20 -2 -40.5t-6 -37.5l-29 -161q-16 -86 -62 -135.5t-143 -77.5q82 -14 129 -59.5t47 -131.5q0 -16 -1 -29.5t-5 -31.5l-24 -144q-25 -139 -125.5 -225t-288.5 -86h-428zM324 233h120q57 0 83 25t34 70l27 149q2 10 2 17.5v11.5 q0 72 -82 72h-125zM426 811h92q47 0 68.5 22.5t27.5 61.5l27 152q2 10 3 18t1 16q0 29 -15.5 39t-43.5 10h-105z" />
<glyph unicode="C" horiz-adv-x="757" d="M20 289q0 29 2.5 48t6.5 48l106 602q16 96 48 171t84 126t128 78t185 27q76 0 140 -10.5t130 -32.5l-49 -234q-41 14 -85 22.5t-93 8.5q-102 0 -147.5 -42t-61.5 -136l-101 -570q-6 -35 -6 -59q0 -59 32 -87t105 -28q106 0 201 23v-228q-53 -16 -124.5 -28.5 t-143.5 -12.5q-96 0 -164 22.5t-111 64.5t-62.5 99.5t-19.5 127.5z" />
<glyph unicode="D" horiz-adv-x="976" d="M0 0l240 1364h419q162 0 249 -66.5t87 -212.5q0 -39 -3 -68.5t-9 -66.5l-98 -555q-18 -109 -53 -183.5t-90.5 -121.5t-133.5 -68.5t-182 -21.5h-426zM326 246h114q41 0 69 9t46 29.5t29.5 50.5t19.5 73l98 555q6 37 7 63q0 49 -25 70.5t-88 21.5h-117z" />
<glyph unicode="E" horiz-adv-x="837" d="M0 0l240 1364h678l-44 -246h-395l-55 -307h360l-43 -246h-360l-55 -319h397l-43 -246h-680z" />
<glyph unicode="F" horiz-adv-x="800" d="M0 0l240 1364h682l-43 -246h-400l-61 -348h364l-43 -246h-364l-92 -524h-283z" />
<glyph unicode="G" horiz-adv-x="919" d="M27 279q0 27 3 51t7 53l104 594q18 109 51 186.5t87.5 127.5t136.5 74t198 24q96 0 181.5 -16.5t140.5 -39.5l-51 -235q-61 20 -123 32.5t-133 12.5q-102 0 -146.5 -43t-62.5 -148l-101 -569q-6 -37 -6 -68q0 -57 30 -78.5t99 -21.5q23 0 47.5 3t47.5 11l69 439h268 l-106 -625q-72 -33 -172 -50.5t-205 -17.5q-193 0 -278.5 81t-85.5 223z" />
<glyph unicode="H" horiz-adv-x="1005" d="M0 0l240 1364h282l-98 -559h256l98 559h283l-240 -1364h-282l98 559h-256l-98 -559h-283z" />
<glyph unicode="I" horiz-adv-x="479" d="M6 0l240 1364h282l-239 -1364h-283z" />
<glyph unicode="J" horiz-adv-x="464" d="M-186 -248q49 47 81.5 78t54 56.5t33 51t17.5 62.5l240 1364h282l-241 -1364q-12 -72 -28.5 -120t-50.5 -91t-93.5 -92t-157.5 -121z" />
<glyph unicode="K" horiz-adv-x="974" d="M0 0l240 1364h282l-239 -1364h-283zM426 696l332 668h315l-358 -678l159 -686h-307z" />
<glyph unicode="L" horiz-adv-x="755" d="M0 0l240 1364h282l-196 -1118h336l-44 -246h-618z" />
<glyph unicode="M" horiz-adv-x="1396" d="M0 0l240 1364h362l55 -1067l428 1067h367l-240 -1364h-270l143 821l-335 -821h-287l-49 821l-144 -821h-270z" />
<glyph unicode="N" horiz-adv-x="1067" d="M0 0l240 1364h274l199 -778l137 778h272l-239 -1364h-277l-196 778l-138 -778h-272z" />
<glyph unicode="O" horiz-adv-x="970" d="M37 289q0 27 3 52.5t7 53.5l100 570q18 104 50 183t88.5 133t140.5 81t207 27q98 0 165.5 -24t110.5 -64.5t61.5 -98t18.5 -125.5q0 -55 -10 -112l-100 -570q-16 -96 -48 -174t-87.5 -132t-141.5 -84t-211 -30q-96 0 -163.5 24t-109.5 64.5t-61.5 99t-19.5 126.5z M317 315q0 -45 25 -69.5t90 -24.5q80 0 114 39t46 111l110 626q6 31 7 56q0 45 -25 67.5t-90 22.5q-84 0 -116 -37t-44 -109l-110 -626q-6 -35 -7 -56z" />
<glyph unicode="P" horiz-adv-x="923" d="M0 0l240 1364h434q317 0 317 -254q0 -23 -3 -47.5t-7 -52.5l-31 -174q-29 -162 -124 -252t-300 -90h-157l-86 -494h-283zM412 735h127q63 0 90.5 26.5t38.5 86.5l30 174q2 10 3 18.5t1 14.5q0 41 -24.5 54t-71.5 13h-127z" />
<glyph unicode="Q" horiz-adv-x="970" d="M37 289q0 27 3 52.5t7 53.5l100 570q18 104 50 183t88.5 133t140.5 81t207 27q98 0 165.5 -24t110.5 -64.5t61.5 -98t18.5 -125.5q0 -55 -10 -112l-100 -570q-16 -96 -48 -174t-87.5 -132t-141.5 -84t-211 -30q-96 0 -163.5 24t-109.5 64.5t-61.5 99t-19.5 126.5z M178 -317l45 221q123 -2 231.5 -17.5t219.5 -44.5l-53 -221q-121 27 -223.5 42t-219.5 20zM317 315q0 -45 25 -69.5t90 -24.5q80 0 114 39t46 111l110 626q6 31 7 56q0 45 -25 67.5t-90 22.5q-84 0 -116 -37t-44 -109l-110 -626q-6 -35 -7 -56z" />
<glyph unicode="R" horiz-adv-x="1005" d="M0 0l240 1364h456q158 0 238 -58.5t80 -193.5q0 -39 -10 -96l-31 -172q-10 -55 -24.5 -101.5t-39 -83t-62.5 -66.5t-97 -52l149 -541h-313l-123 498h-94l-86 -498h-283zM412 739h149q59 0 89 24.5t40 84.5l31 164q2 10 3 19t1 20q0 41 -21.5 56t-68.5 15h-156z" />
<glyph unicode="S" horiz-adv-x="800" d="M-16 33l53 237q53 -23 113.5 -36t123.5 -13q94 0 132 40t51 112q8 39 8 71q0 49 -27.5 72t-95.5 49q-66 25 -109 53.5t-68.5 62.5t-35.5 72t-10 81t7 93t17 109q18 104 52 172t85.5 108t121 56.5t157.5 16.5q78 0 157 -12.5t138 -37.5l-47 -235q-49 16 -107.5 27.5 t-121.5 11.5q-76 0 -109 -28t-45 -93q-10 -47 -10 -72q0 -37 27.5 -62.5t109.5 -60.5q57 -25 97 -50t64.5 -56t36 -69t11.5 -89q0 -35 -5.5 -83t-15.5 -107q-35 -209 -138 -303.5t-308 -94.5q-70 0 -152 15.5t-157 42.5z" />
<glyph unicode="T" horiz-adv-x="778" d="M117 1118l43 246h760l-43 -246h-240l-197 -1118h-282l196 1118h-237z" />
<glyph unicode="U" horiz-adv-x="989" d="M47 291q0 20 2 40.5t6 39.5l176 993h283l-178 -1004q-2 -10 -3 -21t-1 -24q0 -43 24.5 -68.5t85.5 -25.5q78 0 111 34t43 93l178 1016h283l-178 -1004q-16 -90 -49 -161.5t-90.5 -120.5t-141.5 -76t-201 -27q-168 0 -259 88.5t-91 227.5z" />
<glyph unicode="V" horiz-adv-x="854" d="M147 1364h295l-34 -958l297 958h303l-523 -1364h-309z" />
<glyph unicode="W" horiz-adv-x="1384" d="M147 1364h283l-31 -848l310 848h256l18 -848l262 848h289l-475 -1364h-273l-30 889l-336 -889h-270z" />
<glyph unicode="X" horiz-adv-x="966" d="M-84 0l459 707l-195 657h285l102 -408l250 408h297l-450 -692l210 -672h-282l-119 401l-252 -401h-305z" />
<glyph unicode="Y" horiz-adv-x="866" d="M131 1364h307l47 -563l217 563h328l-459 -872l-86 -492h-282l88 502z" />
<glyph unicode="Z" horiz-adv-x="837" d="M6 217l563 901h-413l43 246h706v-217l-563 -901h414l-43 -246h-703z" />
<glyph unicode="[" horiz-adv-x="571" d="M-16 -262l331 1880h418l-37 -213h-147l-256 -1454h147l-39 -213h-417z" />
<glyph unicode="\" horiz-adv-x="815" d="M213 1384h266l139 -1624h-266z" />
<glyph unicode="]" horiz-adv-x="571" d="M-106 -262l36 213h146l256 1454h-146l37 213h418l-332 -1880h-415z" />
<glyph unicode="^" horiz-adv-x="894" d="M123 795l246 569h270l246 -569l-226 -84l-155 409l-156 -409z" />
<glyph unicode="_" horiz-adv-x="661" d="M-168 -420l39 215h668l-39 -215h-668z" />
<glyph unicode="`" horiz-adv-x="747" d="M317 1290l160 172q55 -59 105.5 -108t109.5 -101l-131 -153q-63 41 -129.5 93t-114.5 97z" />
<glyph unicode="a" d="M10 188q0 27 3 50.5t7 52.5l76 428q29 154 125 226.5t262 72.5q111 0 202 -33t157 -74l-160 -911h-223l-4 92q-41 -41 -103.5 -76.5t-142.5 -35.5q-92 0 -145.5 54t-53.5 154zM293 301q-4 -18 -4 -33q0 -18 6 -32q10 -24 47 -23q31 0 59.5 13.5t53.5 33.5l90 508 q-39 16 -80 16q-53 0 -73.5 -19.5t-29.5 -66.5z" />
<glyph unicode="b" horiz-adv-x="868" d="M-6 57l237 1348l279 41l-90 -514q59 41 125.5 63.5t113.5 22.5q94 0 145.5 -50t51.5 -153q0 -27 -2 -47t-6 -37l-72 -407q-31 -180 -130 -262t-296 -82q-39 0 -86 5t-95 15t-94 24.5t-81 32.5zM295 221q16 -4 38.5 -6t43.5 -2q59 0 88 23.5t39 76.5l69 396q3 15 3 27 q0 22 -10 32q-15 16 -46 16q-35 0 -69.5 -11t-63.5 -28z" />
<glyph unicode="c" horiz-adv-x="634" d="M10 217q0 31 3 55.5t7 40.5l68 383q29 166 120 244t253 78q61 0 111.5 -11.5t99.5 -33.5l-39 -209q-35 10 -66.5 15t-70.5 5q-63 0 -98.5 -23.5t-45.5 -86.5l-69 -395q-4 -29 6 -47.5t43 -18.5q51 0 104 11.5t101 27.5l16 -215q-55 -23 -133 -40t-141 -17 q-152 0 -210.5 64.5t-58.5 172.5z" />
<glyph unicode="d" horiz-adv-x="888" d="M20 188q0 27 3.5 50.5t7.5 52.5l75 428q29 160 107 229.5t213 69.5q53 0 103.5 -11.5t84.5 -31.5l76 430l279 41l-254 -1446h-223l-7 78q-47 -41 -114.5 -69.5t-139.5 -28.5q-211 0 -211 208zM303 301q-3 -17 -3 -31q0 -20 6 -34q11 -24 52 -23q35 0 69 13.5t60 29.5 l91 510q-18 8 -45 13t-54 5q-57 0 -77.5 -20.5t-28.5 -65.5z" />
<glyph unicode="e" horiz-adv-x="741" d="M6 227q0 27 3 49.5t7 49.5l62 348q16 96 49 161.5t82 106.5t114.5 58.5t145.5 17.5q137 0 210 -68.5t73 -185.5q0 -131 -78 -212t-230 -138q-47 -18 -81.5 -29.5t-69.5 -24.5l-17 -94q-6 -35 9.5 -49t46.5 -14q51 0 114.5 23.5t151.5 66.5l59 -199q-90 -53 -187 -83.5 t-196 -30.5q-131 0 -199.5 62t-68.5 185zM334 594q10 4 25.5 8t33.5 10q51 16 81 41t30 76q0 72 -66 72q-41 0 -58.5 -24.5t-25.5 -65.5z" />
<glyph unicode="f" horiz-adv-x="589" d="M-92 -287q27 37 46 70t34.5 65.5t26 69.5t18.5 82l135 764h-94l41 233h94l33 187q12 68 32.5 117t56.5 81.5t87 48t123 15.5q109 0 202 -41l-45 -215q-60 22 -118 22h-5q-31 0 -47 -13t-22 -48l-27 -154h176l-43 -233h-174l-135 -764q-12 -74 -29.5 -130t-43 -103.5 t-62.5 -93.5t-90 -97z" />
<glyph unicode="g" horiz-adv-x="884" d="M-27 -352l54 209q66 -27 135 -44.5t131 -17.5q51 0 85 16.5t44 69.5l39 225q-59 -41 -126 -63.5t-114 -22.5q-94 0 -145 50.5t-51 152.5q0 27 2 47.5t6 36.5l65 367q16 94 45 159.5t78 106.5t120 59.5t171 18.5q104 0 198.5 -25.5t168.5 -62.5l-191 -1080 q-27 -147 -124 -210.5t-251 -63.5q-74 0 -163 18.5t-177 53.5zM307 330q-3 -15 -3 -26q0 -23 10 -34q16 -16 46 -16q35 0 70 11t64 28l86 483q-16 4 -39 6t-43 2q-59 0 -88 -23.5t-39 -76.5z" />
<glyph unicode="h" horiz-adv-x="864" d="M-10 0l246 1405l278 41l-92 -526q63 43 128.5 70.5t125.5 27.5q86 0 128 -44t42 -122q0 -25 -6 -61l-140 -791h-270l129 731q1 8 1 15q0 38 -38 38q-27 0 -64.5 -11t-66.5 -28l-131 -745h-270z" />
<glyph unicode="i" horiz-adv-x="436" d="M-8 0l170 975l278 41l-178 -1016h-270zM184 1100l52 301l278 41l-51 -301z" />
<glyph unicode="j" horiz-adv-x="436" d="M-190 -250q49 45 79.5 72.5t51 49.5t30 43.5t15.5 51.5l176 1008l278 41l-186 -1063q-8 -47 -22.5 -87t-47 -83t-88 -92t-147.5 -115zM184 1100l52 301l278 41l-51 -301z" />
<glyph unicode="k" horiz-adv-x="841" d="M-10 0l248 1405l276 41l-254 -1446h-270zM362 504l263 514l274 -45l-262 -471l127 -502h-287z" />
<glyph unicode="l" horiz-adv-x="434" d="M-10 0l248 1405l276 41l-254 -1446h-270z" />
<glyph unicode="m" horiz-adv-x="1284" d="M-10 0l170 973l233 43l10 -96q57 37 127 67.5t136 30.5t104.5 -25.5t54.5 -72.5q66 41 135.5 69.5t135.5 28.5q86 0 128 -44t42 -122q0 -25 -6 -61l-140 -791h-270l129 731q1 8 1 15q0 38 -38 38q-29 0 -59.5 -11t-61.5 -28l-131 -745h-270l129 731q1 8 1 15q0 38 -38 38 q-29 0 -60.5 -11t-60.5 -28l-131 -745h-270z" />
<glyph unicode="n" horiz-adv-x="864" d="M-10 0l170 973l233 43l10 -96q57 39 132 68.5t141 29.5q86 0 128 -44t42 -122q0 -25 -6 -61l-140 -791h-270l129 731q1 8 1 15q0 38 -38 38q-27 0 -64.5 -11t-66.5 -28l-131 -745h-270z" />
<glyph unicode="o" d="M12 272q0 14 2 38t6 40l56 314q16 92 47 158.5t81 109.5t123.5 64.5t174.5 21.5q160 0 241.5 -75t81.5 -204q0 -23 -1 -39t-5 -36l-55 -316q-16 -88 -44 -156.5t-77 -115.5t-124 -71.5t-181 -24.5q-156 0 -241 79.5t-85 212.5zM283 289q0 -76 86 -76q55 0 82.5 26.5 t35.5 73.5l62 353q2 10 3 20t1 21q0 77 -84 77h-2q-53 0 -80 -22.5t-37 -75.5l-65 -373q-2 -10 -2 -15v-9z" />
<glyph unicode="p" horiz-adv-x="882" d="M-88 -444l250 1417l227 35l6 -88q53 43 118 70.5t136 27.5q211 0 211 -209q0 -27 -3 -55.5t-7 -46.5l-76 -428q-29 -160 -106.5 -229.5t-212.5 -69.5q-53 0 -103.5 11t-85.5 32l-76 -426zM303 231q18 -8 45 -13t53 -5q57 0 78 20.5t29 65.5l70 397q3 17 3 31q0 20 -7 33 q-11 24 -52 24q-35 0 -68.5 -13t-60.5 -30z" />
<glyph unicode="q" horiz-adv-x="884" d="M18 182q0 27 2.5 47.5t6.5 36.5l71 408q16 94 45 159.5t78 106.5t120 59.5t171 18.5q104 0 199.5 -24.5t167.5 -63.5l-236 -1333l-278 -41l90 510q-59 -41 -126 -63.5t-114 -22.5q-94 0 -145.5 50t-51.5 152zM301 289q-3 -15 -3 -26q0 -23 10 -33q16 -17 46 -17 q35 0 70 11.5t63 27.5l93 524q-16 4 -39 6t-43 2q-59 0 -88 -23.5t-39 -76.5z" />
<glyph unicode="r" horiz-adv-x="544" d="M-10 0l172 975l229 41l2 -139q29 43 72 81.5t104 59.5l35 -260q-70 -20 -118 -40t-107 -48l-119 -670h-270z" />
<glyph unicode="s" horiz-adv-x="657" d="M-20 35l53 217q45 -20 98 -32.5t107 -12.5q47 0 65.5 14.5t26.5 59.5q4 20 4 30q0 27 -17.5 39t-62.5 35q-104 49 -143 96t-39 121q0 29 4 63.5t12 75.5q14 80 41 133.5t68 85t99 45t136 13.5q51 0 113.5 -9.5t128.5 -31.5l-43 -215q-51 14 -93 21.5t-100 7.5 q-51 0 -67.5 -16.5t-22.5 -53.5q-2 -10 -3 -18.5t-1 -16.5q0 -18 13.5 -30.5t48.5 -30.5q51 -27 88.5 -47.5t63.5 -45t38 -56.5t12 -79q0 -46 -12 -116q-27 -152 -103.5 -226.5t-238.5 -74.5q-66 0 -140.5 14t-133.5 41z" />
<glyph unicode="t" horiz-adv-x="593" d="M51 147q0 18 2 38t6 36l97 543h-105l41 233h105l45 258l276 23l-49 -281h182l-47 -233h-178l-88 -510q-4 -20 1.5 -30.5t25.5 -10.5q23 0 55.5 11.5t62.5 25.5l33 -207q-66 -33 -138.5 -48t-133.5 -15q-92 0 -142.5 40.5t-50.5 126.5z" />
<glyph unicode="u" horiz-adv-x="856" d="M10 145q0 25 6 62l138 780l272 17l-129 -738q-1 -8 -1 -15q0 -38 38 -38q27 0 60.5 11.5t62.5 27.5l129 735l272 17l-174 -1004h-231l-9 78q-57 -39 -127.5 -68.5t-136.5 -29.5q-86 0 -128 44t-42 121z" />
<glyph unicode="v" horiz-adv-x="776" d="M68 967l268 41l53 -721l125 428q12 45 19.5 83t7.5 74q0 31 -2 51.5t-7 51.5l267 41q18 -78 18 -139q0 -78 -41 -185l-266 -692h-317z" />
<glyph unicode="w" horiz-adv-x="1153" d="M57 967l256 39q14 -72 25.5 -137.5t19 -131t10.5 -134t3 -146.5v-56.5t-2 -56.5l163 389l-45 223l226 45l110 -669l68 391q8 47 8 92q0 47 -4 81t-12 79l260 41q18 -74 18 -154q0 -35 -3 -69.5t-13 -69.5l-195 -723h-264l-84 414l-174 -414h-256q-8 135 -17.5 256 t-21.5 237.5t-30.5 233.5t-45.5 240z" />
<glyph unicode="x" horiz-adv-x="780" d="M-82 0l332 504l-166 471l256 41l86 -297l156 278h286l-350 -510l178 -487h-266l-86 254l-147 -254h-279z" />
<glyph unicode="y" horiz-adv-x="774" d="M12 -238q45 25 80 46.5t60.5 47t47 60.5t44.5 84h-70l-104 967l272 41l47 -738l127 445q12 45 19.5 83t7.5 74q0 31 -2 51.5t-6 51.5l266 41q8 -35 13 -69t5 -70q0 -78 -41 -185l-266 -692q-35 -90 -67.5 -156.5t-77.5 -119t-107.5 -92.5t-157.5 -76z" />
<glyph unicode="z" horiz-adv-x="700" d="M-16 188l415 590h-313l37 219h594l4 -188l-418 -590h324l-37 -219h-598z" />
<glyph unicode="{" horiz-adv-x="628" d="M59 571l39 220h52q47 0 64 17t24 52l86 488q14 78 37.5 130t58.5 82.5t84 44t114 13.5h173l-33 -213h-72q-43 0 -63.5 -14.5t-30.5 -65.5l-76 -430q-18 -102 -65.5 -153.5t-157.5 -61.5q84 -6 118.5 -46t34.5 -110q0 -25 -6 -57l-75 -430q-2 -10 -3.5 -16.5t-1.5 -12.5 q0 -27 15.5 -39t54.5 -12h72l-35 -215h-139q-242 0 -242 217q0 20 2 42t6 46l78 440q2 10 3 17.5t1 15.5q0 51 -65 51h-52z" />
<glyph unicode="|" horiz-adv-x="550" d="M4 -258l332 1876h264l-332 -1876h-264z" />
<glyph unicode="}" horiz-adv-x="628" d="M-106 -258l32 213h72q43 0 63.5 14.5t30.5 65.5l76 430q18 102 65.5 153.5t157.5 61.5q-84 6 -118.5 46t-34.5 110q0 23 6 57l75 430q2 10 3.5 16.5t1.5 12.5q0 27 -15.5 39t-54.5 12h-72l35 215h139q242 0 242 -217q0 -20 -2 -42t-6 -46l-78 -441q-2 -10 -3 -17t-1 -15 q0 -25 14.5 -38.5t50.5 -13.5h52l-39 -219h-51q-47 0 -64.5 -17t-24.5 -52l-86 -488q-14 -78 -37.5 -130t-58.5 -82.5t-84 -44t-114 -13.5h-172z" />
<glyph unicode="~" horiz-adv-x="882" d="M102 569q8 145 60.5 237.5t167.5 92.5q51 0 85 -11t81 -38q49 -29 74.5 -44t50.5 -15q35 0 45 32.5t16 75.5l184 -65q-2 -154 -53.5 -240t-155.5 -86q-53 0 -84.5 12t-78.5 39q-37 23 -69 41t-60 18q-35 0 -47.5 -31.5t-22.5 -78.5z" />
<glyph unicode="&#xa1;" horiz-adv-x="475" d="M-61 -403l108 608l111 346h172l-11 -346l-108 -608h-272zM129 682l55 315h271l-56 -315h-270z" />
<glyph unicode="&#xa2;" horiz-adv-x="737" d="M76 422q0 31 3 57.5t7 42.5l59 340q45 262 265 307l34 195h230l-35 -197q31 -6 58.5 -14t50.5 -18l-48 -217q-41 14 -74.5 21t-72.5 7q-63 0 -98 -21.5t-45 -84.5l-62 -353q-4 -27 5 -48t44 -21q51 0 104.5 11t100.5 28l16 -215q-35 -14 -76.5 -25.5t-84.5 -19.5 l-35 -197h-229l34 197q-86 23 -118.5 81t-32.5 144z" />
<glyph unicode="&#xa3;" horiz-adv-x="892" d="M-20 0l32 190q47 45 82 88.5t60.5 86.5t43 89t29.5 95h-151l41 229h155l45 256q31 178 125.5 266.5t270.5 88.5q74 0 129 -8.5t102 -24.5l-39 -221q-37 10 -73.5 14t-77.5 4q-72 0 -112 -29.5t-56 -124.5l-39 -221h276l-39 -229h-282q-27 -92 -71 -170t-118 -141h455 l-41 -238h-747z" />
<glyph unicode="&#xa4;" horiz-adv-x="1017" d="M41 287l137 119q-10 45 -10 90q0 23 2 43t6 45l35 198q18 115 76 195l-94 115l188 159l106 -131q33 10 67 15.5t73 5.5q66 0 125 -17l151 129l141 -170l-135 -114q14 -43 15 -99q0 -47 -9 -88l-34 -198q-23 -117 -78 -197l98 -119l-186 -159l-113 135q-61 -18 -137 -19 q-37 0 -67.5 3t-59.5 14l-152 -129zM420 514q0 -33 20.5 -52.5t63.5 -19.5q51 0 78.5 26t35.5 69l52 292q8 43 -11.5 69t-70.5 26t-79 -26t-36 -69l-51 -292q-2 -10 -2 -14.5v-8.5z" />
<glyph unicode="&#xa5;" horiz-adv-x="931" d="M43 287l37 209h237l2 6l-20 139h-193l37 209h125l-75 514h266l53 -596l219 596h287l-252 -514h125l-37 -209h-190l-70 -145h233l-36 -209h-236l-49 -287h-275l50 287h-238z" />
<glyph unicode="&#xa6;" horiz-adv-x="593" d="M164 -258v797h266v-797h-266zM164 821v797h266v-797h-266z" />
<glyph unicode="&#xa7;" horiz-adv-x="993" d="M147 782q0 166 25 299q29 160 106.5 234t233.5 74q78 0 140.5 -13.5t109.5 -36.5l-47 -192q-55 18 -95 28.5t-85 10.5q-47 0 -76 -21.5t-39 -72.5q-16 -82 -22.5 -165t-6.5 -171q0 -166 22.5 -340t59.5 -359l-223 -57q-51 217 -77 413.5t-26 368.5zM242 -334l47 193 q55 -18 95 -28.5t85 -10.5q47 0 75.5 21.5t39.5 72.5q16 82 22 165t6 171q0 166 -22.5 340t-59.5 358l224 58q51 -217 76.5 -414t25.5 -369q0 -168 -25 -299q-29 -160 -106.5 -233.5t-232.5 -73.5q-78 0 -140.5 13.5t-109.5 35.5z" />
<glyph unicode="&#xa8;" horiz-adv-x="874" d="M293 1147l47 264h209l-47 -264h-209zM590 1147l47 264h209l-47 -264h-209z" />
<glyph unicode="&#xa9;" horiz-adv-x="1603" d="M127 682q0 145 50 273t142.5 223.5t221.5 150.5t288 55q160 0 289 -55t221.5 -150.5t142.5 -223.5t50 -273t-50 -273t-142.5 -223.5t-221.5 -150.5t-289 -55t-288.5 55t-221 150.5t-142.5 223.5t-50 273zM264 682q0 -123 37 -229.5t109.5 -185.5t178 -124t240.5 -45 t241 45t178.5 124t109.5 185.5t37 229.5t-37 229.5t-109.5 185.5t-178 124t-241.5 45q-135 0 -240.5 -45t-178 -124t-109.5 -185.5t-37 -229.5zM565 604v162q0 129 65.5 202.5t219.5 73.5q47 0 100.5 -9t89.5 -23l-16 -162q-74 20 -147 20q-55 0 -76 -25.5t-21 -74.5v-166 q0 -49 20.5 -74.5t76.5 -25.5q74 0 147 20l16 -162q-37 -14 -90 -23t-100 -9q-154 0 -219.5 73.5t-65.5 202.5z" />
<glyph unicode="&#xaa;" horiz-adv-x="686" d="M168 905l51 291q18 106 75.5 149.5t178.5 43.5q61 0 121.5 -17.5t110.5 -46.5l-105 -588h-145l-2 60q-23 -23 -64 -47.5t-88 -24.5q-78 0 -112.5 50t-20.5 130zM354 930q-10 -51 33 -51q20 0 34.5 8t31.5 20l57 320q-8 4 -18.5 6t-26.5 2q-33 0 -47.5 -11.5t-18.5 -39.5z " />
<glyph unicode="&#xab;" horiz-adv-x="1069" d="M72 541l262 417l217 -135l-195 -291l117 -325l-246 -84zM512 541l262 417l217 -135l-194 -291l116 -325l-245 -84z" />
<glyph unicode="&#xac;" horiz-adv-x="976" d="M150 741v234h761v-543h-262v309h-499z" />
<glyph unicode="&#xad;" horiz-adv-x="612" d="M92 549l41 235h442l-40 -235h-443z" />
<glyph unicode="&#xae;" horiz-adv-x="864" d="M154 1055q0 78 26.5 145.5t74.5 117.5t115.5 78.5t151.5 28.5t152.5 -28.5t117 -78.5t75 -117.5t26.5 -145.5t-26.5 -145.5t-75 -119t-117 -80t-152.5 -28.5t-151.5 28.5t-115.5 80t-74.5 119t-26.5 145.5zM252 1055q0 -53 14.5 -104.5t46 -92.5t82.5 -66.5t127 -25.5 t127 25.5t84 66.5t47.5 92t14.5 105q0 51 -14.5 103t-47.5 92t-84 65.5t-127 25.5t-127 -25.5t-82.5 -65.5t-46 -92t-14.5 -103zM393 893v340h170q96 0 96 -98v-33q0 -61 -45 -84l76 -125h-108l-64 111h-31v-111h-94zM487 1077h54q27 0 26 25v33q0 23 -26 22h-54v-80z" />
<glyph unicode="&#xaf;" horiz-adv-x="854" d="M266 1182l37 204h485l-36 -204h-486z" />
<glyph unicode="&#xb0;" horiz-adv-x="692" d="M180 1073q0 143 82 229.5t236 86.5q109 0 170 -58t61 -160q0 -68 -21.5 -125t-61.5 -99t-98.5 -65.5t-133.5 -23.5q-115 0 -174.5 62.5t-59.5 152.5zM344 1087q0 -43 19.5 -67.5t68.5 -24.5q68 0 101.5 51.5t33.5 114.5q0 41 -22.5 65.5t-71.5 24.5q-63 0 -96 -46 t-33 -118z" />
<glyph unicode="&#xb1;" horiz-adv-x="946" d="M82 0v225h762v-225h-762zM82 627v233h250v268h262v-268h250v-233h-250v-269h-262v269h-250z" />
<glyph unicode="&#xb2;" horiz-adv-x="763" d="M125 543l29 155q37 33 67.5 59.5t57 50t51 46.5t51.5 45q31 27 52.5 47.5t36.5 40t24.5 42t15.5 52.5l6 35q8 43 -10.5 58.5t-65.5 15.5q-43 0 -82 -7t-86 -22l-12 180q53 18 121 30.5t139 12.5q102 0 160.5 -47t58.5 -141q0 -20 -6 -57l-8 -47q-6 -39 -15.5 -72 t-25.5 -62.5t-40.5 -58t-61.5 -59.5q-47 -39 -82 -65.5t-70 -55.5h246l-33 -176h-518z" />
<glyph unicode="&#xb3;" horiz-adv-x="708" d="M127 557l37 162q35 -12 75 -19.5t85 -7.5q90 0 102 74l6 37q8 41 -7 56t-56 15h-136l29 162h129q41 0 58.5 19.5t21.5 48.5l8 45q8 43 -9 55.5t-64 12.5q-35 0 -69 -6.5t-75 -16.5l8 160q39 14 92.5 22t106.5 8q119 0 179.5 -49t39.5 -164l-8 -45q-10 -53 -34.5 -94 t-92.5 -69q61 -16 76.5 -58.5t5.5 -101.5l-10 -60q-18 -104 -85 -162.5t-202 -58.5q-47 0 -105.5 9.5t-105.5 25.5z" />
<glyph unicode="&#xb4;" horiz-adv-x="757" d="M313 1272q70 43 140.5 90t142.5 100l111 -186q-72 -49 -143.5 -91t-149.5 -85z" />
<glyph unicode="&#xb5;" horiz-adv-x="856" d="M-98 -444l252 1431l272 17l-129 -738q-8 -53 37 -53q27 0 60.5 11.5t62.5 27.5l129 735l272 17l-174 -1004h-231l-9 78q-39 -29 -94 -54.5t-104 -35.5l-68 -391z" />
<glyph unicode="&#xb6;" horiz-adv-x="993" d="M133 799q0 274 142.5 419.5t402.5 145.5l-162 -918q-86 0 -155.5 24t-121 68t-79 109.5t-27.5 151.5zM301 -268q49 45 91 80.5t74 68.5t52.5 66t26.5 73l237 1344h242l-231 -1317q-14 -80 -36 -135t-63 -104.5t-107.5 -102.5t-170.5 -129z" />
<glyph unicode="&#xb7;" horiz-adv-x="440" d="M82 494l55 315h271l-56 -315h-270z" />
<glyph unicode="&#xb8;" horiz-adv-x="700" d="M57 -377l29 117q31 -12 57.5 -17.5t57.5 -5.5q68 0 67 47q0 35 -47 35q-20 0 -35.5 -1t-29.5 -3l-35 35l59 207h125l-31 -137q76 0 110 -27t34 -88q0 -86 -57.5 -137t-157.5 -51q-43 0 -78 7t-68 19z" />
<glyph unicode="&#xb9;" horiz-adv-x="643" d="M184 1178l295 186h168l-145 -821h-213l100 563l-137 -64z" />
<glyph unicode="&#xba;" horiz-adv-x="647" d="M160 899q0 10 1 20.5t3 20.5l41 234q18 104 75.5 159.5t190.5 55.5q98 0 150.5 -46.5t52.5 -123.5q0 -25 -4 -45l-41 -234q-18 -104 -81 -159.5t-192 -55.5q-98 0 -147 51t-49 123zM342 930q-8 -51 41 -51q53 0 61 51l45 254q8 51 -43 51t-59 -49z" />
<glyph unicode="&#xbb;" horiz-adv-x="1069" d="M82 258l194 291l-116 325l246 84l155 -417l-262 -418zM522 258l195 291l-117 325l246 84l155 -417l-262 -418z" />
<glyph unicode="&#xbc;" horiz-adv-x="1638" d="M217 1178l295 186h168l-145 -821h-213l100 563l-137 -64zM348 -8l768 1423l154 -78l-772 -1427zM834 168l24 137l350 516h254l-88 -499h105l-27 -154h-104l-29 -168h-189l29 168h-325zM1047 322h139l55 307z" />
<glyph unicode="&#xbd;" horiz-adv-x="1687" d="M217 1178l295 186h168l-145 -821h-213l100 563l-137 -64zM348 -8l768 1423l154 -78l-772 -1427zM944 0l29 156q37 33 67.5 59.5t57 50t51.5 46t51 44.5q31 27 52.5 47.5t37 40t24.5 42t15 53.5l6 34q8 43 -10 58.5t-65 15.5q-43 0 -82 -7t-86 -22l-13 181q53 18 121 30.5 t139 12.5q102 0 161 -47t59 -142q0 -20 -7 -57l-8 -47q-6 -39 -15 -72t-25.5 -62.5t-41 -58t-61.5 -59.5q-47 -39 -82 -65.5t-70 -55.5h246l-33 -176h-518z" />
<glyph unicode="&#xbe;" horiz-adv-x="1644" d="M127 557l37 162q35 -12 75 -19.5t85 -7.5q90 0 102 74l6 37q8 41 -7 56t-56 15h-136l29 162h129q41 0 58.5 19.5t21.5 48.5l8 45q8 43 -9 55.5t-64 12.5q-35 0 -69 -6.5t-75 -16.5l8 160q39 14 92.5 22t106.5 8q119 0 179.5 -49t39.5 -164l-8 -45q-10 -53 -34.5 -94 t-92.5 -69q61 -16 76.5 -58.5t5.5 -101.5l-10 -60q-18 -104 -85 -162.5t-202 -58.5q-47 0 -105.5 9.5t-105.5 25.5zM354 -8l768 1423l154 -78l-772 -1427zM840 168l24 137l350 516h254l-88 -499h105l-27 -154h-104l-29 -168h-188l28 168h-325zM1053 322h139l55 307z" />
<glyph unicode="&#xbf;" horiz-adv-x="811" d="M-39 -186q0 29 2 54.5t6 45.5l15 86q8 49 20 88t33.5 76t55.5 72.5t83 76.5q72 59 133.5 110.5t132.5 111.5l138 -177q-55 -51 -105.5 -99t-97.5 -91q-47 -45 -81 -85t-44 -97l-10 -58q-2 -10 -3 -18t-1 -16q0 -47 25.5 -62.5t72.5 -15.5q59 0 119.5 12t113.5 33l15 -223 q-74 -31 -159 -46.5t-171 -15.5q-143 0 -218 54.5t-75 183.5zM356 682l56 315h270l-55 -315h-271z" />
<glyph unicode="&#xc0;" horiz-adv-x="937" d="M-86 0l543 1364h315l72 -1364h-281l2 276h-264l-92 -276h-295zM387 524h180l2 545zM398 1628l145 172q47 -47 100.5 -93t122.5 -105l-131 -154q-63 41 -126.5 88t-110.5 92z" />
<glyph unicode="&#xc1;" horiz-adv-x="937" d="M-86 0l543 1364h315l72 -1364h-281l2 276h-264l-92 -276h-295zM387 524h180l2 545zM473 1620q70 43 131.5 83t136.5 97l111 -186q-72 -49 -138.5 -87t-140.5 -79z" />
<glyph unicode="&#xc2;" horiz-adv-x="937" d="M-86 0l543 1364h315l72 -1364h-281l2 276h-264l-92 -276h-295zM373 1589q76 53 151.5 103.5t155.5 107.5q47 -49 98 -99t129 -124l-129 -129q-47 35 -77.5 60.5t-57.5 50.5q-39 -29 -82 -54.5t-94 -56.5zM387 524h180l2 545z" />
<glyph unicode="&#xc3;" horiz-adv-x="937" d="M-86 0l543 1364h315l72 -1364h-281l2 276h-264l-92 -276h-295zM342 1561q51 98 96 145t125 47q35 0 60.5 -9t54.5 -30q35 -23 47 -32t33 -9q27 0 42 17.5t36 52.5l119 -76q-41 -82 -88.5 -137t-122.5 -55q-35 0 -62.5 10t-52.5 26q-31 20 -47.5 30.5t-32.5 10.5 q-29 0 -47.5 -20.5t-40.5 -52.5zM387 524h180l2 545z" />
<glyph unicode="&#xc4;" horiz-adv-x="937" d="M-86 0l543 1364h315l72 -1364h-281l2 276h-264l-92 -276h-295zM374 1503l48 264h217l-47 -264h-218zM387 524h180l2 545zM680 1503l47 264h217l-47 -264h-217z" />
<glyph unicode="&#xc5;" horiz-adv-x="935" d="M-86 0l535 1346q-12 27 -13 63q0 98 58.5 154.5t154.5 56.5q78 0 120 -39.5t42 -107.5q0 -41 -10 -71t-29 -59l72 -1343h-281l2 276h-264l-92 -276h-295zM387 524h180l2 545zM557 1417q0 -53 53 -53q37 0 57.5 28.5t20.5 69.5q0 53 -51 54q-39 0 -59.5 -29t-20.5 -70z " />
<glyph unicode="&#xc6;" horiz-adv-x="1257" d="M-86 0l543 1364h880l-43 -246h-510l17 -307h403l-43 -246h-348l16 -319h314l-43 -246h-537l2 276h-264l-92 -276h-295zM387 524h180l2 545z" />
<glyph unicode="&#xc7;" horiz-adv-x="757" d="M20 289q0 29 2.5 48t6.5 48l106 602q16 96 48 171t84 126t128 78t185 27q76 0 140 -10.5t130 -32.5l-49 -234q-41 14 -85 22.5t-93 8.5q-102 0 -147.5 -42t-61.5 -136l-101 -570q-6 -35 -6 -59q0 -59 32 -87t105 -28q106 0 201 23v-228q-49 -16 -111.5 -26t-127.5 -15 l-17 -75q76 0 109.5 -27t33.5 -88q0 -86 -57 -137t-158 -51q-43 0 -77.5 7t-67.5 19l29 117q31 -12 57.5 -17.5t56.5 -5.5q68 0 68 47q0 35 -47 35q-20 0 -35.5 -1t-30.5 -3l-34 35l43 154q-139 23 -199 103.5t-60 201.5z" />
<glyph unicode="&#xc8;" horiz-adv-x="837" d="M0 0l240 1364h678l-44 -246h-395l-55 -307h360l-43 -246h-360l-55 -319h397l-43 -246h-680zM385 1628l145 172q47 -47 100.5 -93t122.5 -105l-131 -154q-63 41 -126.5 88t-110.5 92z" />
<glyph unicode="&#xc9;" horiz-adv-x="837" d="M0 0l240 1364h678l-44 -246h-395l-55 -307h360l-43 -246h-360l-55 -319h397l-43 -246h-680zM426 1620q70 43 131.5 83t136.5 97l111 -186q-72 -49 -138.5 -87t-140.5 -79z" />
<glyph unicode="&#xca;" horiz-adv-x="837" d="M0 0l240 1364h678l-44 -246h-395l-55 -307h360l-43 -246h-360l-55 -319h397l-43 -246h-680zM344 1589q76 53 151.5 103.5t155.5 107.5q47 -49 98 -99t129 -124l-129 -129q-47 35 -77.5 60.5t-57.5 50.5q-39 -29 -82 -54.5t-94 -56.5z" />
<glyph unicode="&#xcb;" horiz-adv-x="837" d="M0 0l240 1364h678l-44 -246h-395l-55 -307h360l-43 -246h-360l-55 -319h397l-43 -246h-680zM329 1503l48 264h217l-47 -264h-218zM635 1503l47 264h217l-47 -264h-217z" />
<glyph unicode="&#xcc;" horiz-adv-x="479" d="M6 0l240 1364h282l-239 -1364h-283zM183 1628l145 172q47 -47 100.5 -93t122.5 -105l-131 -154q-63 41 -126.5 88t-110.5 92z" />
<glyph unicode="&#xcd;" horiz-adv-x="479" d="M6 0l240 1364h282l-239 -1364h-283zM262 1620q70 43 131.5 83t136.5 97l111 -186q-72 -49 -138.5 -87t-140.5 -79z" />
<glyph unicode="&#xce;" horiz-adv-x="479" d="M6 0l240 1364h282l-239 -1364h-283zM152 1589q76 53 151.5 103.5t155.5 107.5q47 -49 98 -99t129 -124l-129 -129q-47 35 -77.5 60.5t-57.5 50.5q-39 -29 -82 -54.5t-94 -56.5z" />
<glyph unicode="&#xcf;" horiz-adv-x="479" d="M6 0l240 1364h282l-239 -1364h-283zM153 1503l48 264h217l-47 -264h-218zM459 1503l47 264h217l-47 -264h-217z" />
<glyph unicode="&#xd0;" horiz-adv-x="1013" d="M39 0l98 565h-82l41 236h82l101 563h426q170 0 249.5 -66.5t79.5 -212.5q0 -39 -3 -68.5t-9 -66.5l-98 -555q-18 -109 -53 -183.5t-90.5 -121.5t-133.5 -68.5t-182 -21.5h-426zM365 246h114q41 0 68.5 9t46 29.5t30 50.5t19.5 73l98 555q6 37 7 63q0 49 -25 70.5 t-88 21.5h-117l-57 -317h131l-41 -236h-131z" />
<glyph unicode="&#xd1;" horiz-adv-x="1067" d="M0 0l240 1364h274l199 -778l137 778h272l-239 -1364h-277l-196 778l-138 -778h-272zM391 1561q51 98 96 145t125 47q35 0 60.5 -9t54.5 -30q35 -23 47 -32t33 -9q27 0 42 17.5t36 52.5l119 -76q-41 -82 -88.5 -137t-122.5 -55q-35 0 -62.5 10t-52.5 26q-31 20 -47.5 30.5 t-32.5 10.5q-29 0 -47.5 -20.5t-40.5 -52.5z" />
<glyph unicode="&#xd2;" horiz-adv-x="970" d="M37 289q0 27 3 52.5t7 53.5l100 570q18 104 50 183t88.5 133t140.5 81t207 27q98 0 165.5 -24t110.5 -64.5t61.5 -98t18.5 -125.5q0 -55 -10 -112l-100 -570q-16 -96 -48 -174t-87.5 -132t-141.5 -84t-211 -30q-96 0 -163.5 24t-109.5 64.5t-61.5 99t-19.5 126.5z M317 315q0 -45 25 -69.5t90 -24.5q80 0 114 39t46 111l110 626q6 31 7 56q0 45 -25 67.5t-90 22.5q-84 0 -116 -37t-44 -109l-110 -626q-6 -35 -7 -56zM428 1628l145 172q47 -47 100.5 -93t122.5 -105l-131 -154q-63 41 -126.5 88t-110.5 92z" />
<glyph unicode="&#xd3;" horiz-adv-x="970" d="M37 289q0 27 3 52.5t7 53.5l100 570q18 104 50 183t88.5 133t140.5 81t207 27q98 0 165.5 -24t110.5 -64.5t61.5 -98t18.5 -125.5q0 -55 -10 -112l-100 -570q-16 -96 -48 -174t-87.5 -132t-141.5 -84t-211 -30q-96 0 -163.5 24t-109.5 64.5t-61.5 99t-19.5 126.5z M317 315q0 -45 25 -69.5t90 -24.5q80 0 114 39t46 111l110 626q6 31 7 56q0 45 -25 67.5t-90 22.5q-84 0 -116 -37t-44 -109l-110 -626q-6 -35 -7 -56zM457 1620q70 43 131.5 83t136.5 97l111 -186q-72 -49 -138.5 -87t-140.5 -79z" />
<glyph unicode="&#xd4;" horiz-adv-x="970" d="M37 289q0 27 3 52.5t7 53.5l100 570q18 104 50 183t88.5 133t140.5 81t207 27q98 0 165.5 -24t110.5 -64.5t61.5 -98t18.5 -125.5q0 -55 -10 -112l-100 -570q-16 -96 -48 -174t-87.5 -132t-141.5 -84t-211 -30q-96 0 -163.5 24t-109.5 64.5t-61.5 99t-19.5 126.5z M317 315q0 -45 25 -69.5t90 -24.5q80 0 114 39t46 111l110 626q6 31 7 56q0 45 -25 67.5t-90 22.5q-84 0 -116 -37t-44 -109l-110 -626q-6 -35 -7 -56zM379 1589q76 53 151.5 103.5t155.5 107.5q47 -49 98 -99t129 -124l-129 -129q-47 35 -77.5 60.5t-57.5 50.5 q-39 -29 -82 -54.5t-94 -56.5z" />
<glyph unicode="&#xd5;" horiz-adv-x="970" d="M37 289q0 27 3 52.5t7 53.5l100 570q18 104 50 183t88.5 133t140.5 81t207 27q98 0 165.5 -24t110.5 -64.5t61.5 -98t18.5 -125.5q0 -55 -10 -112l-100 -570q-16 -96 -48 -174t-87.5 -132t-141.5 -84t-211 -30q-96 0 -163.5 24t-109.5 64.5t-61.5 99t-19.5 126.5z M317 315q0 -45 25 -69.5t90 -24.5q80 0 114 39t46 111l110 626q6 31 7 56q0 45 -25 67.5t-90 22.5q-84 0 -116 -37t-44 -109l-110 -626q-6 -35 -7 -56zM350 1561q51 98 96 145t125 47q35 0 60.5 -9t54.5 -30q35 -23 47 -32t33 -9q27 0 42 17.5t36 52.5l119 -76 q-41 -82 -88.5 -137t-122.5 -55q-35 0 -62.5 10t-52.5 26q-31 20 -47.5 30.5t-32.5 10.5q-29 0 -47.5 -20.5t-40.5 -52.5z" />
<glyph unicode="&#xd6;" horiz-adv-x="970" d="M37 289q0 27 3 52.5t7 53.5l100 570q18 104 50 183t88.5 133t140.5 81t207 27q98 0 165.5 -24t110.5 -64.5t61.5 -98t18.5 -125.5q0 -55 -10 -112l-100 -570q-16 -96 -48 -174t-87.5 -132t-141.5 -84t-211 -30q-96 0 -163.5 24t-109.5 64.5t-61.5 99t-19.5 126.5z M317 315q0 -45 25 -69.5t90 -24.5q80 0 114 39t46 111l110 626q6 31 7 56q0 45 -25 67.5t-90 22.5q-84 0 -116 -37t-44 -109l-110 -626q-6 -35 -7 -56zM382 1503l48 264h217l-47 -264h-218zM688 1503l47 264h217l-47 -264h-217z" />
<glyph unicode="&#xd7;" horiz-adv-x="958" d="M135 487l215 215l-215 216l166 165l215 -215l215 215l166 -165l-215 -216l215 -215l-166 -165l-215 215l-215 -215z" />
<glyph unicode="&#xd8;" horiz-adv-x="974" d="M-29 -61l111 172q-43 74 -43 178q0 27 3 52.5t7 53.5l101 570q18 104 49.5 183t88 133t140.5 81t207 27q76 0 134 -14.5t99 -41.5l97 152l94 -60l-111 -172q43 -74 43 -176q0 -55 -10 -112l-100 -570q-16 -96 -48 -174t-87.5 -132t-141.5 -84t-211 -30q-76 0 -133 14.5 t-98 39.5l-99 -154zM324 281q8 -29 33.5 -44.5t76.5 -15.5q80 0 114 39t46 111l80 454zM354 535l353 548q-8 29 -33 44.5t-78 15.5q-84 0 -115.5 -37t-44.5 -109z" />
<glyph unicode="&#xd9;" horiz-adv-x="989" d="M47 291q0 20 2 40.5t6 39.5l176 993h283l-178 -1004q-2 -10 -3 -21t-1 -24q0 -43 24.5 -68.5t85.5 -25.5q78 0 111 34t43 93l178 1016h283l-178 -1004q-16 -90 -49 -161.5t-90.5 -120.5t-141.5 -76t-201 -27q-168 0 -259 88.5t-91 227.5zM449 1628l145 172 q47 -47 100.5 -93t122.5 -105l-131 -154q-63 41 -126.5 88t-110.5 92z" />
<glyph unicode="&#xda;" horiz-adv-x="989" d="M47 291q0 20 2 40.5t6 39.5l176 993h283l-178 -1004q-2 -10 -3 -21t-1 -24q0 -43 24.5 -68.5t85.5 -25.5q78 0 111 34t43 93l178 1016h283l-178 -1004q-16 -90 -49 -161.5t-90.5 -120.5t-141.5 -76t-201 -27q-168 0 -259 88.5t-91 227.5zM489 1620q70 43 131.5 83 t136.5 97l111 -186q-72 -49 -138.5 -87t-140.5 -79z" />
<glyph unicode="&#xdb;" horiz-adv-x="989" d="M47 291q0 20 2 40.5t6 39.5l176 993h283l-178 -1004q-2 -10 -3 -21t-1 -24q0 -43 24.5 -68.5t85.5 -25.5q78 0 111 34t43 93l178 1016h283l-178 -1004q-16 -90 -49 -161.5t-90.5 -120.5t-141.5 -76t-201 -27q-168 0 -259 88.5t-91 227.5zM404 1589q76 53 151.5 103.5 t155.5 107.5q47 -49 98 -99t129 -124l-129 -129q-47 35 -77.5 60.5t-57.5 50.5q-39 -29 -82 -54.5t-94 -56.5z" />
<glyph unicode="&#xdc;" horiz-adv-x="989" d="M47 291q0 20 2 40.5t6 39.5l176 993h283l-178 -1004q-2 -10 -3 -21t-1 -24q0 -43 24.5 -68.5t85.5 -25.5q78 0 111 34t43 93l178 1016h283l-178 -1004q-16 -90 -49 -161.5t-90.5 -120.5t-141.5 -76t-201 -27q-168 0 -259 88.5t-91 227.5zM403 1503l48 264h217l-47 -264 h-218zM709 1503l47 264h217l-47 -264h-217z" />
<glyph unicode="&#xdd;" horiz-adv-x="866" d="M131 1364h307l47 -563l217 563h328l-459 -872l-86 -492h-282l88 502zM414 1620q70 43 131.5 83t136.5 97l111 -186q-72 -49 -138.5 -87t-140.5 -79z" />
<glyph unicode="&#xde;" horiz-adv-x="919" d="M0 0l240 1364h282l-41 -229h152q317 0 317 -254q0 -23 -3 -47.5t-7 -53.5l-31 -174q-29 -162 -124 -252t-300 -90h-157l-45 -264h-283zM371 506h127q63 0 90.5 26.5t38.5 85.5l30 175q2 10 3.5 18t1.5 14q0 41 -25 54.5t-72 13.5h-127z" />
<glyph unicode="&#xdf;" horiz-adv-x="976" d="M-127 -287q27 37 46.5 70t34.5 65.5t25.5 69.5t18.5 82l186 1063q33 186 136.5 265t304.5 79q156 0 237.5 -72.5t81.5 -187.5q0 -92 -30.5 -160.5t-84.5 -152.5q-29 -45 -55 -84t-26 -68t17 -51.5t50 -61.5q29 -35 48.5 -61.5t30.5 -52t16 -52t5 -63.5 q0 -68 -20.5 -131.5t-62 -111.5t-107.5 -77.5t-154 -29.5q-55 0 -100 9t-94 26l45 204q31 -14 64.5 -19t68.5 -5q94 0 94 82q0 23 -12 37t-41 43q-37 39 -62.5 69.5t-41 57t-21.5 51t-6 55.5q0 45 9 82t24.5 68.5t35 62.5t37.5 64q35 57 67 114.5t32 122.5q0 41 -22.5 60.5 t-63.5 19.5q-49 0 -83 -28.5t-44 -90.5l-189 -1075q-12 -74 -29.5 -130t-43 -103.5t-62.5 -93.5t-90 -97z" />
<glyph unicode="&#xe0;" d="M10 188q0 27 3 50.5t7 52.5l76 428q29 154 125 226.5t262 72.5q111 0 202 -33t157 -74l-160 -911h-223l-4 92q-41 -41 -103.5 -76.5t-142.5 -35.5q-92 0 -145.5 54t-53.5 154zM293 301q-8 -41 2 -64.5t47 -23.5q31 0 59.5 13.5t53.5 33.5l90 508q-39 16 -80 16 q-53 0 -73.5 -19.5t-29.5 -66.5zM331 1290l160 172q55 -59 105.5 -108t109.5 -101l-131 -153q-63 41 -129.5 93t-114.5 97z" />
<glyph unicode="&#xe1;" d="M10 188q0 27 3 50.5t7 52.5l76 428q29 154 125 226.5t262 72.5q111 0 202 -33t157 -74l-160 -911h-223l-4 92q-41 -41 -103.5 -76.5t-142.5 -35.5q-92 0 -145.5 54t-53.5 154zM293 301q-8 -41 2 -64.5t47 -23.5q31 0 59.5 13.5t53.5 33.5l90 508q-39 16 -80 16 q-53 0 -73.5 -19.5t-29.5 -66.5zM331 1272q70 43 140.5 90t142.5 100l111 -186q-72 -49 -143.5 -91t-149.5 -85z" />
<glyph unicode="&#xe2;" d="M10 188q0 27 3 50.5t7 52.5l76 428q29 154 125 226.5t262 72.5q111 0 202 -33t157 -74l-160 -911h-223l-4 92q-41 -41 -103.5 -76.5t-142.5 -35.5q-92 0 -145.5 54t-53.5 154zM277 1241q72 53 147.5 107.5t155.5 113.5q47 -53 101 -110.5t120 -122.5l-129 -129 q-39 33 -70 62.5t-59 58.5q-39 -31 -83 -62t-89 -59zM293 301q-8 -41 2 -64.5t47 -23.5q31 0 59.5 13.5t53.5 33.5l90 508q-39 16 -80 16q-53 0 -73.5 -19.5t-29.5 -66.5z" />
<glyph unicode="&#xe3;" d="M10 188q0 27 3 50.5t7 52.5l76 428q29 154 125 226.5t262 72.5q111 0 202 -33t157 -74l-160 -911h-223l-4 92q-41 -41 -103.5 -76.5t-142.5 -35.5q-92 0 -145.5 54t-53.5 154zM246 1233q51 98 96 145t125 47q35 0 60.5 -9t54.5 -30q35 -23 47 -31.5t32 -8.5q27 0 42.5 17 t35.5 52l119 -76q-41 -82 -88 -137t-123 -55q-35 0 -62.5 10.5t-52.5 26.5q-31 20 -47 30.5t-32 10.5q-29 0 -47.5 -20.5t-41.5 -53.5zM293 301q-8 -41 2 -64.5t47 -23.5q31 0 59.5 13.5t53.5 33.5l90 508q-39 16 -80 16q-53 0 -73.5 -19.5t-29.5 -66.5z" />
<glyph unicode="&#xe4;" d="M10 188q0 27 3 50.5t7 52.5l76 428q29 154 125 226.5t262 72.5q111 0 202 -33t157 -74l-160 -911h-223l-4 92q-41 -41 -103.5 -76.5t-142.5 -35.5q-92 0 -145.5 54t-53.5 154zM289 1147l47 264h209l-47 -264h-209zM293 301q-8 -41 2 -64.5t47 -23.5q31 0 59.5 13.5 t53.5 33.5l90 508q-39 16 -80 16q-53 0 -73.5 -19.5t-29.5 -66.5zM586 1147l47 264h209l-47 -264h-209z" />
<glyph unicode="&#xe5;" d="M10 188q0 27 3 50.5t7 52.5l76 428q29 154 125 226.5t262 72.5q111 0 202 -33t157 -74l-160 -911h-223l-4 92q-41 -41 -103.5 -76.5t-142.5 -35.5q-92 0 -145.5 54t-53.5 154zM293 301q-8 -41 2 -64.5t47 -23.5q31 0 59.5 13.5t53.5 33.5l90 508q-39 16 -80 16 q-53 0 -73.5 -19.5t-29.5 -66.5zM361 1265q0 98 58 154.5t155 56.5q78 0 119.5 -39.5t41.5 -107.5q0 -88 -55 -150.5t-160 -62.5q-70 0 -114.5 42t-44.5 107zM481 1274q1 -54 54 -54q37 0 57 29t20 70q0 53 -51 53q-39 0 -59.5 -29t-20.5 -69z" />
<glyph unicode="&#xe6;" horiz-adv-x="1171" d="M-20 227q0 193 83.5 275t241.5 82h176l17 90q2 10 3 18t1 17q0 43 -23.5 59t-70.5 16q-59 0 -131 -14t-123 -37l-7 223q72 29 151 45.5t159 16.5q78 0 125 -17.5t82 -58.5q47 41 106 58.5t131 17.5q129 0 199.5 -64.5t70.5 -195.5q0 -63 -16 -119.5t-57 -103t-110 -82 t-171 -60.5q-41 -10 -58.5 -13t-43.5 -7l-17 -94q-2 -10 -3 -17.5t-1 -13.5q0 -45 58 -45q106 0 266 90l59 -199q-90 -53 -187 -83.5t-196 -30.5q-150 0 -215 83q-66 -47 -131 -65t-143 -18q-55 0 -97 19t-71 53t-43 79t-14 96zM256 266q0 -71 68 -71q27 0 57.5 7t52.5 17 q-4 27 0 55.5t8 51.5l9 47h-107q-47 0 -67.5 -28t-20.5 -79zM754 592q23 4 38.5 8t38.5 10q49 14 71 44t22 75q0 33 -15.5 52.5t-50.5 19.5q-41 0 -58.5 -24.5t-25.5 -65.5z" />
<glyph unicode="&#xe7;" horiz-adv-x="634" d="M10 217q0 31 3 55.5t7 40.5l68 383q29 166 120 244t253 78q61 0 111.5 -11.5t99.5 -33.5l-39 -209q-35 10 -66.5 15t-70.5 5q-63 0 -98.5 -23.5t-45.5 -86.5l-69 -395q-4 -29 6 -47.5t43 -18.5q51 0 104 11.5t101 27.5l16 -215q-47 -18 -108.5 -33.5t-118.5 -21.5 l-19 -82q76 0 110 -27t34 -88q0 -86 -57.5 -137t-157.5 -51q-43 0 -78 7t-68 19l29 117q31 -12 57.5 -17.5t56.5 -5.5q68 0 68 47q0 35 -47 35q-20 0 -35.5 -1t-30.5 -3l-34 35l45 156q-106 16 -147.5 77.5t-41.5 153.5z" />
<glyph unicode="&#xe8;" horiz-adv-x="741" d="M6 227q0 27 3 49.5t7 49.5l62 348q16 96 49 161.5t82 106.5t114.5 58.5t145.5 17.5q137 0 210 -68.5t73 -185.5q0 -131 -78 -212t-230 -138q-47 -18 -81.5 -29.5t-69.5 -24.5l-17 -94q-6 -35 9.5 -49t46.5 -14q51 0 114.5 23.5t151.5 66.5l59 -199q-90 -53 -187 -83.5 t-196 -30.5q-131 0 -199.5 62t-68.5 185zM249 1290l160 172q55 -59 105.5 -108t109.5 -101l-131 -153q-63 41 -129.5 93t-114.5 97zM334 594q10 4 25.5 8t33.5 10q51 16 81 41t30 76q0 72 -66 72q-41 0 -58.5 -24.5t-25.5 -65.5z" />
<glyph unicode="&#xe9;" horiz-adv-x="741" d="M6 227q0 27 3 49.5t7 49.5l62 348q16 96 49 161.5t82 106.5t114.5 58.5t145.5 17.5q137 0 210 -68.5t73 -185.5q0 -131 -78 -212t-230 -138q-47 -18 -81.5 -29.5t-69.5 -24.5l-17 -94q-6 -35 9.5 -49t46.5 -14q51 0 114.5 23.5t151.5 66.5l59 -199q-90 -53 -187 -83.5 t-196 -30.5q-131 0 -199.5 62t-68.5 185zM299 1272q70 43 140.5 90t142.5 100l111 -186q-72 -49 -143.5 -91t-149.5 -85zM334 594q10 4 25.5 8t33.5 10q51 16 81 41t30 76q0 72 -66 72q-41 0 -58.5 -24.5t-25.5 -65.5z" />
<glyph unicode="&#xea;" horiz-adv-x="741" d="M6 227q0 27 3 49.5t7 49.5l62 348q16 96 49 161.5t82 106.5t114.5 58.5t145.5 17.5q137 0 210 -68.5t73 -185.5q0 -131 -78 -212t-230 -138q-47 -18 -81.5 -29.5t-69.5 -24.5l-17 -94q-6 -35 9.5 -49t46.5 -14q51 0 114.5 23.5t151.5 66.5l59 -199q-90 -53 -187 -83.5 t-196 -30.5q-131 0 -199.5 62t-68.5 185zM240 1241q72 53 147.5 107.5t155.5 113.5q47 -53 101 -110.5t120 -122.5l-129 -129q-39 33 -70 62.5t-59 58.5q-39 -31 -83 -62t-89 -59zM334 594q10 4 25.5 8t33.5 10q51 16 81 41t30 76q0 72 -66 72q-41 0 -58.5 -24.5 t-25.5 -65.5z" />
<glyph unicode="&#xeb;" horiz-adv-x="741" d="M6 227q0 27 3 49.5t7 49.5l62 348q16 96 49 161.5t82 106.5t114.5 58.5t145.5 17.5q137 0 210 -68.5t73 -185.5q0 -131 -78 -212t-230 -138q-47 -18 -81.5 -29.5t-69.5 -24.5l-17 -94q-6 -35 9.5 -49t46.5 -14q51 0 114.5 23.5t151.5 66.5l59 -199q-90 -53 -187 -83.5 t-196 -30.5q-131 0 -199.5 62t-68.5 185zM242 1147l47 264h209l-47 -264h-209zM334 594q10 4 25.5 8t33.5 10q51 16 81 41t30 76q0 72 -66 72q-41 0 -58.5 -24.5t-25.5 -65.5zM539 1147l47 264h209l-47 -264h-209z" />
<glyph unicode="&#xec;" horiz-adv-x="436" d="M-8 0l170 975l278 41l-178 -1016h-270zM98 1290l160 172q55 -59 105.5 -108t109.5 -101l-131 -153q-63 41 -129.5 93t-114.5 97z" />
<glyph unicode="&#xed;" horiz-adv-x="436" d="M-8 0l170 975l278 41l-178 -1016h-270zM157 1272q70 43 140.5 90t142.5 100l111 -186q-72 -49 -143.5 -91t-149.5 -85z" />
<glyph unicode="&#xee;" horiz-adv-x="436" d="M-8 0l170 975l278 41l-178 -1016h-270zM74 1241q72 53 147.5 107.5t155.5 113.5q47 -53 101 -110.5t120 -122.5l-129 -129q-39 33 -70 62.5t-59 58.5q-39 -31 -83 -62t-89 -59z" />
<glyph unicode="&#xef;" horiz-adv-x="436" d="M-8 0l170 975l278 41l-178 -1016h-270zM80 1147l47 264h209l-47 -264h-209zM377 1147l47 264h209l-47 -264h-209z" />
<glyph unicode="&#xf0;" horiz-adv-x="888" d="M31 260q0 23 1 39t5 37l47 270q29 156 109.5 229.5t224.5 73.5q61 0 107 -13t85 -36q2 16 3 33.5t1 28.5q0 119 -57 174l-260 -125l-41 98l205 102q-47 23 -99.5 35.5t-111.5 20.5l100 219q115 -10 217.5 -45t167.5 -94l183 88l43 -101l-152 -75q33 -37 53.5 -109 t20.5 -164q0 -29 -3 -62.5t-8 -62.5l-84 -483q-14 -80 -45.5 -146.5t-85 -114.5t-129 -75t-178.5 -27q-152 0 -235.5 78t-83.5 207zM299 279q0 -37 19.5 -57.5t66.5 -20.5q61 0 89 29.5t38 82.5l61 344q-41 25 -116 25q-51 0 -73 -20.5t-32 -69.5l-49 -277q-2 -10 -3 -19 t-1 -17z" />
<glyph unicode="&#xf1;" horiz-adv-x="866" d="M-10 0l170 973l233 43l10 -96q57 39 132 68.5t141 29.5q86 0 128 -44t42 -122q0 -25 -6 -61l-140 -791h-270l129 731q8 53 -37 53q-27 0 -64.5 -11t-66.5 -28l-131 -745h-270zM254 1233q51 98 96 145t125 47q35 0 60.5 -9t54.5 -30q35 -23 47 -31.5t32 -8.5q27 0 42.5 17 t35.5 52l119 -76q-41 -82 -88 -137t-123 -55q-35 0 -62.5 10.5t-52.5 26.5q-31 20 -47 30.5t-32 10.5q-29 0 -47.5 -20.5t-41.5 -53.5z" />
<glyph unicode="&#xf2;" d="M12 272q0 14 2 38t6 40l56 314q16 92 47 158.5t81 109.5t123.5 64.5t174.5 21.5q160 0 241.5 -75t81.5 -204q0 -23 -1 -39t-5 -36l-55 -316q-16 -88 -44 -156.5t-77 -115.5t-124 -71.5t-181 -24.5q-156 0 -241 79.5t-85 212.5zM283 289q0 -76 86 -76q55 0 82.5 26.5 t35.5 73.5l62 353q2 10 3 20t1 21q0 78 -86 77q-53 0 -80 -22.5t-37 -75.5l-65 -373q-2 -10 -2 -15v-9zM319 1290l160 172q55 -59 105.5 -108t109.5 -101l-131 -153q-63 41 -129.5 93t-114.5 97z" />
<glyph unicode="&#xf3;" d="M12 272q0 14 2 38t6 40l56 314q16 92 47 158.5t81 109.5t123.5 64.5t174.5 21.5q160 0 241.5 -75t81.5 -204q0 -23 -1 -39t-5 -36l-55 -316q-16 -88 -44 -156.5t-77 -115.5t-124 -71.5t-181 -24.5q-156 0 -241 79.5t-85 212.5zM283 289q0 -76 86 -76q55 0 82.5 26.5 t35.5 73.5l62 353q2 10 3 20t1 21q0 78 -86 77q-53 0 -80 -22.5t-37 -75.5l-65 -373q-2 -10 -2 -15v-9zM317 1272q70 43 140.5 90t142.5 100l111 -186q-72 -49 -143.5 -91t-149.5 -85z" />
<glyph unicode="&#xf4;" d="M12 272q0 14 2 38t6 40l56 314q16 92 47 158.5t81 109.5t123.5 64.5t174.5 21.5q160 0 241.5 -75t81.5 -204q0 -23 -1 -39t-5 -36l-55 -316q-16 -88 -44 -156.5t-77 -115.5t-124 -71.5t-181 -24.5q-156 0 -241 79.5t-85 212.5zM271 1241q72 53 147.5 107.5t155.5 113.5 q47 -53 101 -110.5t120 -122.5l-129 -129q-39 33 -70 62.5t-59 58.5q-39 -31 -83 -62t-89 -59zM283 289q0 -76 86 -76q55 0 82.5 26.5t35.5 73.5l62 353q2 10 3 20t1 21q0 78 -86 77q-53 0 -80 -22.5t-37 -75.5l-65 -373q-2 -10 -2 -15v-9z" />
<glyph unicode="&#xf5;" d="M12 272q0 14 2 38t6 40l56 314q16 92 47 158.5t81 109.5t123.5 64.5t174.5 21.5q160 0 241.5 -75t81.5 -204q0 -23 -1 -39t-5 -36l-55 -316q-16 -88 -44 -156.5t-77 -115.5t-124 -71.5t-181 -24.5q-156 0 -241 79.5t-85 212.5zM238 1233q51 98 96 145t125 47 q35 0 60.5 -9t54.5 -30q35 -23 47 -31.5t32 -8.5q27 0 42.5 17t35.5 52l119 -76q-41 -82 -88 -137t-123 -55q-35 0 -62.5 10.5t-52.5 26.5q-31 20 -47 30.5t-32 10.5q-29 0 -47.5 -20.5t-41.5 -53.5zM283 289q0 -76 86 -76q55 0 82.5 26.5t35.5 73.5l62 353q2 10 3 20t1 21 q0 78 -86 77q-53 0 -80 -22.5t-37 -75.5l-65 -373q-2 -10 -2 -15v-9z" />
<glyph unicode="&#xf6;" d="M12 272q0 14 2 38t6 40l56 314q16 92 47 158.5t81 109.5t123.5 64.5t174.5 21.5q160 0 241.5 -75t81.5 -204q0 -23 -1 -39t-5 -36l-55 -316q-16 -88 -44 -156.5t-77 -115.5t-124 -71.5t-181 -24.5q-156 0 -241 79.5t-85 212.5zM277 1147l47 264h209l-47 -264h-209z M283 289q0 -76 86 -76q55 0 82.5 26.5t35.5 73.5l62 353q2 10 3 20t1 21q0 78 -86 77q-53 0 -80 -22.5t-37 -75.5l-65 -373q-2 -10 -2 -15v-9zM574 1147l47 264h209l-47 -264h-209z" />
<glyph unicode="&#xf7;" horiz-adv-x="1007" d="M143 586v233h762v-233h-762zM393 219v260h262v-260h-262zM393 926v260h262v-260h-262z" />
<glyph unicode="&#xf8;" horiz-adv-x="849" d="M-45 -47l108 145q-29 41 -39 82t-10 92q0 14 2 38t7 40l55 314q16 92 47 158.5t81 109.5t123.5 64.5t174.5 21.5q66 0 118 -14.5t93 -38.5l100 133l72 -58l-107 -141q27 -33 37 -73t10 -87q0 -23 -1 -39t-5 -36l-55 -316q-16 -88 -44 -156.5t-77 -115.5t-124 -71.5 t-181 -24.5q-125 0 -209 55l-104 -139zM293 250q18 -37 78 -37q55 0 82.5 26.5t35.5 73.5l46 258zM305 420l244 323q-18 41 -80 41q-53 0 -80 -22.5t-37 -75.5z" />
<glyph unicode="&#xf9;" horiz-adv-x="856" d="M10 145q0 25 6 62l138 780l272 17l-129 -738q-8 -53 37 -53q27 0 60.5 11.5t62.5 27.5l129 735l272 17l-174 -1004h-231l-9 78q-57 -39 -127.5 -68.5t-136.5 -29.5q-86 0 -128 44t-42 121zM327 1290l160 172q55 -59 105.5 -108t109.5 -101l-131 -153q-63 41 -129.5 93 t-114.5 97z" />
<glyph unicode="&#xfa;" horiz-adv-x="856" d="M10 145q0 25 6 62l138 780l272 17l-129 -738q-8 -53 37 -53q27 0 60.5 11.5t62.5 27.5l129 735l272 17l-174 -1004h-231l-9 78q-57 -39 -127.5 -68.5t-136.5 -29.5q-86 0 -128 44t-42 121zM356 1272q70 43 140.5 90t142.5 100l111 -186q-72 -49 -143.5 -91t-149.5 -85z " />
<glyph unicode="&#xfb;" horiz-adv-x="856" d="M10 145q0 25 6 62l138 780l272 17l-129 -738q-8 -53 37 -53q27 0 60.5 11.5t62.5 27.5l129 735l272 17l-174 -1004h-231l-9 78q-57 -39 -127.5 -68.5t-136.5 -29.5q-86 0 -128 44t-42 121zM285 1241q72 53 147.5 107.5t155.5 113.5q47 -53 101 -110.5t120 -122.5 l-129 -129q-39 33 -70 62.5t-59 58.5q-39 -31 -83 -62t-89 -59z" />
<glyph unicode="&#xfc;" horiz-adv-x="856" d="M10 145q0 25 6 62l138 780l272 17l-129 -738q-8 -53 37 -53q27 0 60.5 11.5t62.5 27.5l129 735l272 17l-174 -1004h-231l-9 78q-57 -39 -127.5 -68.5t-136.5 -29.5q-86 0 -128 44t-42 121zM293 1147l47 264h209l-47 -264h-209zM590 1147l47 264h209l-47 -264h-209z" />
<glyph unicode="&#xfd;" horiz-adv-x="774" d="M12 -238q45 25 80 46.5t60.5 47t47 60.5t44.5 84h-70l-104 967l272 41l47 -738l127 445q12 45 19.5 83t7.5 74q0 31 -2 51.5t-6 51.5l266 41q8 -35 13 -69t5 -70q0 -78 -41 -185l-266 -692q-35 -90 -67.5 -156.5t-77.5 -119t-107.5 -92.5t-157.5 -76zM282 1272 q70 43 140.5 90t142.5 100l111 -186q-72 -49 -143.5 -91t-149.5 -85z" />
<glyph unicode="&#xfe;" horiz-adv-x="882" d="M-88 -444l326 1849l276 41l-88 -504q41 35 100.5 55.5t122.5 20.5q211 0 211 -209q0 -27 -3 -55.5t-7 -46.5l-76 -428q-29 -160 -106.5 -229.5t-212.5 -69.5q-53 0 -103.5 11t-85.5 32l-76 -426zM303 231q18 -8 45 -13t53 -5q57 0 78 20.5t29 65.5l70 397q8 41 -3.5 64.5 t-52.5 23.5q-35 0 -68.5 -13t-60.5 -30z" />
<glyph unicode="&#xff;" horiz-adv-x="774" d="M12 -238q45 25 80 46.5t60.5 47t47 60.5t44.5 84h-70l-104 967l272 41l47 -738l127 445q12 45 19.5 83t7.5 74q0 31 -2 51.5t-6 51.5l266 41q8 -35 13 -69t5 -70q0 -78 -41 -185l-266 -692q-35 -90 -67.5 -156.5t-77.5 -119t-107.5 -92.5t-157.5 -76zM211 1147l47 264 h209l-47 -264h-209zM508 1147l47 264h209l-47 -264h-209z" />
<glyph unicode="&#x152;" horiz-adv-x="1429" d="M37 313q0 27 3 52.5t7 54.5l92 520q18 104 50 183t88.5 133.5t140.5 81t207 26.5h884l-43 -246h-407l-55 -307h372l-43 -246h-372l-56 -319h410l-43 -246h-881q-96 0 -163.5 23.5t-109.5 64.5t-61.5 99.5t-19.5 125.5zM317 340q0 -45 25 -69.5t90 -24.5h191l153 872h-192 q-82 -2 -114 -39t-44 -106l-102 -578q-6 -35 -7 -55z" />
<glyph unicode="&#x153;" horiz-adv-x="1224" d="M12 272q0 14 2 38t6 40l56 314q35 188 128 271t267 83q78 0 137.5 -23.5t104.5 -66.5q45 39 104.5 64.5t145.5 25.5q127 0 194.5 -70.5t67.5 -183.5q0 -131 -77.5 -212t-229.5 -138q-47 -18 -82 -29.5t-70 -24.5l-16 -94q-6 -35 9 -49t46 -14q51 0 114.5 23.5t151.5 66.5 l59 -199q-86 -53 -175 -83.5t-193 -30.5q-66 0 -114 23.5t-73 59.5q-57 -41 -115.5 -62t-129.5 -21q-160 0 -239 79.5t-79 212.5zM283 289q0 -76 86 -76q55 0 82.5 26.5t35.5 73.5l62 353q2 10 3 20t1 21q0 78 -86 77q-53 0 -80 -22.5t-37 -75.5l-65 -373q-2 -10 -2 -15v-9z M807 594l59 18q51 16 81 41t30 76q0 72 -66 72q-41 0 -58 -24.5t-26 -65.5z" />
<glyph unicode="&#x178;" horiz-adv-x="866" d="M131 1364h307l47 -563l217 563h328l-459 -872l-86 -492h-282l88 502zM329 1503l48 264h217l-47 -264h-218zM635 1503l47 264h217l-47 -264h-217z" />
<glyph unicode="&#x2c6;" horiz-adv-x="892" d="M279 1241q72 53 147.5 107.5t155.5 113.5q47 -53 101 -110.5t120 -122.5l-129 -129q-39 33 -70 62.5t-59 58.5q-39 -31 -83 -62t-89 -59z" />
<glyph unicode="&#x2dc;" horiz-adv-x="962" d="M285 1233q51 98 96 145t125 47q35 0 60.5 -9t54.5 -30q35 -23 47 -31.5t32 -8.5q27 0 42.5 17t35.5 52l119 -76q-41 -82 -88 -137t-123 -55q-35 0 -62.5 10.5t-52.5 26.5q-31 20 -47 30.5t-32 10.5q-29 0 -47.5 -20.5t-41.5 -53.5z" />
<glyph unicode="&#x2000;" horiz-adv-x="900" />
<glyph unicode="&#x2001;" horiz-adv-x="1800" />
<glyph unicode="&#x2002;" horiz-adv-x="900" />
<glyph unicode="&#x2003;" horiz-adv-x="1800" />
<glyph unicode="&#x2004;" horiz-adv-x="600" />
<glyph unicode="&#x2005;" horiz-adv-x="450" />
<glyph unicode="&#x2006;" horiz-adv-x="300" />
<glyph unicode="&#x2007;" horiz-adv-x="300" />
<glyph unicode="&#x2008;" horiz-adv-x="225" />
<glyph unicode="&#x2009;" horiz-adv-x="360" />
<glyph unicode="&#x200a;" horiz-adv-x="100" />
<glyph unicode="&#x2010;" horiz-adv-x="612" d="M92 549l41 235h442l-40 -235h-443z" />
<glyph unicode="&#x2011;" horiz-adv-x="612" d="M92 549l41 235h442l-40 -235h-443z" />
<glyph unicode="&#x2012;" horiz-adv-x="612" d="M92 549l41 235h442l-40 -235h-443z" />
<glyph unicode="&#x2013;" horiz-adv-x="933" d="M92 549l41 235h764l-41 -235h-764z" />
<glyph unicode="&#x2014;" horiz-adv-x="1271" d="M92 549l41 235h1102l-41 -235h-1102z" />
<glyph unicode="&#x2018;" horiz-adv-x="421" d="M111 793l55 301l199 290l108 -73l-117 -219h78l-53 -299h-270z" />
<glyph unicode="&#x2019;" horiz-adv-x="417" d="M129 846l117 219h-78l53 299h271l-56 -301l-198 -291z" />
<glyph unicode="&#x201a;" horiz-adv-x="450" d="M-31 -219l117 219h-78l53 299h271l-56 -301l-198 -291z" />
<glyph unicode="&#x201c;" horiz-adv-x="800" d="M111 793l55 301l199 290l108 -73l-117 -219h78l-53 -299h-270zM489 793l56 301l198 290l109 -73l-117 -219h78l-53 -299h-271z" />
<glyph unicode="&#x201d;" horiz-adv-x="800" d="M129 846l117 219h-78l53 299h271l-56 -301l-198 -291zM508 846l117 219h-78l53 299h270l-55 -301l-199 -291z" />
<glyph unicode="&#x201e;" horiz-adv-x="829" d="M-31 -219l117 219h-78l53 299h271l-56 -301l-198 -291zM348 -219l117 219h-78l53 299h271l-56 -301l-198 -291z" />
<glyph unicode="&#x2022;" horiz-adv-x="710" d="M123 621q0 137 75.5 222t221.5 85q104 0 161.5 -61.5t57.5 -159.5q0 -147 -81 -228.5t-220 -81.5q-98 0 -156.5 65t-58.5 159z" />
<glyph unicode="&#x2026;" horiz-adv-x="1314" d="M0 0l55 315h271l-56 -315h-270zM438 0l56 315h270l-55 -315h-271zM877 0l55 315h270l-55 -315h-270z" />
<glyph unicode="&#x202f;" horiz-adv-x="360" />
<glyph unicode="&#x2039;" horiz-adv-x="628" d="M72 541l262 417l217 -135l-195 -291l117 -325l-246 -84z" />
<glyph unicode="&#x203a;" horiz-adv-x="628" d="M82 258l194 291l-116 325l246 84l155 -417l-262 -418z" />
<glyph unicode="&#x205f;" horiz-adv-x="450" />
<glyph unicode="&#x20ac;" horiz-adv-x="917" d="M41 408l39 200h127l26 146h-131l39 200h127l6 33q18 102 50 178t83.5 125t127 74t184.5 25q76 0 144.5 -11.5t115.5 -29.5l-47 -224q-35 12 -83 21.5t-97 9.5q-61 0 -98.5 -10t-59 -32.5t-33.5 -58.5t-20 -89l-2 -11h321l-39 -200h-317l-27 -146h322l-39 -200h-318 l-2 -13q-4 -16 -6 -35.5t-2 -35.5q0 -59 33 -87t119 -28q53 0 99 6t91 16v-223q-53 -16 -122.5 -24.5t-135.5 -8.5q-186 0 -271 87.5t-85 226.5q0 29 2 48t6 48l4 23h-131z" />
<glyph unicode="&#x2122;" horiz-adv-x="948" d="M180 1255v109h332v-109h-104v-297h-123v297h-105zM557 958l12 406h111l94 -223l94 223h111l12 -406h-110l-4 179l-52 -127h-102l-51 127l-4 -179h-111z" />
<glyph unicode="&#x25fc;" horiz-adv-x="1013" d="M0 0v1014h1014v-1014h-1014z" />
<glyph unicode="&#xfb01;" horiz-adv-x="915" d="M-92 -287q27 37 46 70t34.5 65.5t26 69.5t18.5 82l135 764h-94l41 233h94l31 177q25 141 97.5 206.5t211.5 65.5q72 0 134 -14.5t128 -49.5l-61 -202q-41 16 -78 24t-78 8q-78 0 -90 -73l-25 -142h318l123 19l-179 -1016h-270l133 764h-166l-135 -764q-12 -74 -29.5 -130 t-43 -103.5t-62.5 -93.5t-90 -97z" />
<glyph unicode="&#xfb02;" horiz-adv-x="952" d="M-92 -287q27 37 46 70t34.5 65.5t26 69.5t18.5 82l135 764h-94l41 233h94l31 177q25 141 96.5 206.5t212.5 65.5q66 0 119 -9.5t116 -27.5l248 37l-254 -1446h-270l211 1200q-31 8 -60.5 10t-64.5 2q-78 0 -90 -73l-25 -142h137l-41 -233h-137l-135 -764 q-12 -74 -29.5 -130t-43 -103.5t-62.5 -93.5t-90 -97z" />
</font>
</defs>
</svg>
